<?xml version="1.0" encoding="UTF-8" standalone="no"?>
<!-- Created with Inkscape (http://www.inkscape.org/) -->

<svg
   width="100mm"
   height="105.87281mm"
   viewBox="0 0 100 105.87281"
   version="1.1"
   id="svg1"
   inkscape:version="1.3 (0e150ed6c4, 2023-07-21)"
   sodipodi:docname="cubingUSA_2023_color.svg"
   xmlns:inkscape="http://www.inkscape.org/namespaces/inkscape"
   xmlns:sodipodi="http://sodipodi.sourceforge.net/DTD/sodipodi-0.dtd"
   xmlns="http://www.w3.org/2000/svg"
   xmlns:svg="http://www.w3.org/2000/svg">
  <sodipodi:namedview
     id="namedview1"
     pagecolor="#505050"
     bordercolor="#eeeeee"
     borderopacity="1"
     inkscape:showpageshadow="0"
     inkscape:pageopacity="0"
     inkscape:pagecheckerboard="0"
     inkscape:deskcolor="#d1d1d1"
     inkscape:document-units="mm"
     inkscape:zoom="0.99419192"
     inkscape:cx="188.59538"
     inkscape:cy="200.16256"
     inkscape:window-width="2560"
     inkscape:window-height="1376"
     inkscape:window-x="0"
     inkscape:window-y="0"
     inkscape:window-maximized="1"
     inkscape:current-layer="layer1" />
  <defs
     id="defs1">
    <inkscape:path-effect
       effect="perspective-envelope"
       up_left_point="71.966497,50.792434"
       up_right_point="87.659427,50.792434"
       down_left_point="71.966497,97.147825"
       down_right_point="87.659427,86.581625"
       id="path-effect135329"
       is_visible="true"
       lpeversion="1"
       deform_type="envelope_deformation"
       horizontal_mirror="false"
       vertical_mirror="false"
       overflow_perspective="false" />
  </defs>
  <g
     inkscape:label="Layer 1"
     inkscape:groupmode="layer"
     id="layer1"
     transform="translate(-55.033333,-95.514583)">
    <g
       id="g2"
       transform="translate(45.278611,87.821994)">
      <path
         id="path107807"
         style="fill:#003380;fill-opacity:1;fill-rule:evenodd;stroke:none;stroke-width:0.264583px;stroke-linecap:butt;stroke-linejoin:miter;stroke-opacity:1"
         d="M 59.754468,7.692589 9.7547219,20.317135 V 79.087452 L 59.754468,113.5654 109.75472,79.087452 V 20.317135 Z"
         sodipodi:nodetypes="ccccccc" />
      <path
         id="path65667"
         style="fill:#ffffff;stroke-width:6.61459;stroke-linecap:square;stroke-linejoin:round;paint-order:markers fill stroke"
         d="M 12.175599,47.719481 V 78.048206 L 59.75452,110.66957 107.33344,78.048206 V 47.719481 Z"
         sodipodi:nodetypes="cccccc" />
      <path
         id="path45055"
         style="color:#000000;fill:#d40000;fill-rule:evenodd;stroke-width:1;stroke-linecap:square;stroke-linejoin:round;-inkscape-stroke:none"
         d="m 59.768127,50.575512 c -1.58368,-0.01102 -3.15537,0.24515 -4.61386,1.020277 -0.72923,0.387567 -1.45113,0.910813 -2.09119,1.796187 -0.64005,0.885391 -1.15495,2.270706 -1.15495,3.706206 v 10.559904 c 2.1e-4,0.727404 0.181489,1.434858 0.51632,2.014978 l 5.2959,9.160835 4.78077,8.264826 v 8.7068 c -0.0409,0.0269 -0.009,0.0132 -0.0634,0.0417 -0.52766,0.28041 -1.60516,0.53623 -2.66966,0.52892 -1.06451,-0.008 -2.14728,-0.27605 -2.68919,-0.56654 -0.0582,-0.0313 -0.0273,-0.0163 -0.0709,-0.0454 v -2.91098 -4.355474 h -5.09991 v 4.355474 3.68479 c 0,1.4486 0.53134,2.82237 1.16851,3.690015 0.63716,0.86765 1.34956,1.38144 2.07167,1.76851 1.44422,0.77417 3.00906,1.05272 4.59274,1.06361 1.58368,0.0118 3.15497,-0.24518 4.61344,-1.02028 0.72925,-0.38755 1.45154,-0.90869 2.0916,-1.79407 0.64005,-0.885405 1.15497,-2.272285 1.15497,-3.707785 v -10.56045 c -2.2e-4,-0.727397 -0.181506,-1.434841 -0.51634,-2.01495 l -5.232552,-9.047766 -4.844098,-8.377858 v -8.706808 c 0.0408,-0.02708 0.009,-0.01232 0.0633,-0.0412 0.52766,-0.280427 1.60517,-0.536246 2.66967,-0.528932 1.0645,0.0068 2.14728,0.275512 2.68919,0.566009 0.0586,0.03143 0.0271,0.01808 0.0709,0.04748 v 2.91097 4.349994 h 5.0999 v -4.350009 -3.686359 c 0,-1.448608 -0.53134,-2.822897 -1.1685,-3.690547 -0.63718,-0.867642 -1.34957,-1.379339 -2.07169,-1.766421 -1.44422,-0.77416 -3.00905,-1.054822 -4.59273,-1.065703 z"
         sodipodi:nodetypes="cscscccccccccccccssccssscccccccscccccscscc" />
      <path
         style="color:#000000;fill:#d40000;fill-rule:evenodd;stroke-width:0.999996;stroke-linecap:square;-inkscape-stroke:none"
         d="m 42.178267,50.792434 v 2.777839 33.60797 c 0,1.825253 -5.48129,-2.682872 -5.48129,-4.25664 V 53.374118 50.827035 l -5.10582,-0.0029 v 2.332135 28.183927 c 0,7.888792 15.69293,18.799193 15.69293,8.653576 V 53.78522 50.792434 Z"
         id="path44089"
         sodipodi:nodetypes="ccssccccssccc" />
      <path
         id="path57194"
         style="color:#000000;fill:#d40000;fill-rule:evenodd;stroke-width:0.999996;stroke-linecap:square;-inkscape-stroke:none"
         d="m 79.812752,50.792436 c -3.922997,0.0026 -7.846255,2.515251 -7.846255,7.528634 v 35.822149 2.964313 l 5.106767,-3.435447 V 90.927653 75.734481 l 5.479396,-2.144127 v 13.919657 l 0,2.510049 5.106767,-3.438435 V 84.29159 56.605 c 0,-3.879088 -3.923647,-5.814832 -7.846675,-5.812564 z m 0,5.414648 c 1.369839,-0.134145 2.739908,0.132238 2.739908,0.956357 v 11.408747 l -5.479396,1.672173 V 57.762629 c 0,-0.847824 1.369679,-1.420793 2.739488,-1.555545 z"
         inkscape:path-effect="#path-effect135329"
         inkscape:original-d="m 79.812752,50.792436 c -3.922997,0.0023 -7.846255,2.05998 -7.846255,6.165921 v 29.338198 2.42776 h 5.106767 v -2.42776 -13.440071 h 5.479396 v 13.471581 2.42925 h 5.106767 v -2.42925 -29.369708 c 0,-4.114905 -3.923647,-6.168161 -7.846675,-6.165921 z m 0,5.004974 c 1.369839,-0.01187 2.739908,0.363357 2.739908,1.160947 V 67.999854 H 77.073264 V 56.958357 c 0,-0.749996 1.369679,-1.149047 2.739488,-1.160947 z"
         sodipodi:nodetypes="csccccccccccsccsccsc" />
      <path
         id="rect66991"
         style="fill:#d7e3f4;fill-opacity:1;stroke-width:6.61457;stroke-linecap:square;stroke-linejoin:round;paint-order:markers fill stroke"
         d="m 13.484505,20.881144 10.812081,-2.742165 c 1.076917,-0.273128 2.810869,-0.25023 3.887785,0.05134 l 10.812066,3.027728 c 1.07691,0.301571 1.07691,0.774279 -1e-5,1.059883 L 28.18435,25.145353 c -1.076917,0.285604 -2.810869,0.262706 -3.887784,-0.05134 L 13.484502,21.941027 c -1.076915,-0.314047 -1.076914,-0.786755 3e-6,-1.059883 z" />
      <path
         id="rect69959"
         style="fill:#d7e3f4;fill-opacity:1;stroke-width:6.61457;stroke-linecap:square;stroke-linejoin:round;paint-order:markers fill stroke"
         d="m 30.241624,16.631196 10.81208,-2.742166 c 1.07692,-0.273128 2.810873,-0.261679 3.887783,0.02567 l 10.812071,2.884945 c 1.07691,0.28735 1.07691,0.748608 -10e-6,1.034212 l -10.81208,2.86742 c -1.076911,0.285602 -2.810863,0.274153 -3.887783,-0.02567 L 30.241624,17.665409 c -1.076917,-0.299826 -1.076916,-0.761084 0,-1.034213 z" />
      <path
         id="rect69961"
         style="fill:#d7e3f4;fill-opacity:1;stroke-width:6.61457;stroke-linecap:square;stroke-linejoin:round;paint-order:markers fill stroke"
         d="M 46.998754,12.381245 57.810825,9.639082 c 1.07692,-0.273128 2.810873,-0.273129 3.887783,-1e-6 l 10.812071,2.74216 c 1.07691,0.273128 1.07691,0.722937 -1e-5,1.008541 l -10.812071,2.867417 c -1.07692,0.285604 -2.810863,0.285605 -3.887783,1e-6 L 46.998754,13.389786 c -1.07692,-0.285604 -1.07692,-0.735413 0,-1.008541 z" />
      <path
         id="rect69967"
         style="fill:#d7e3f4;fill-opacity:1;stroke-width:6.61457;stroke-linecap:square;stroke-linejoin:round;paint-order:markers fill stroke"
         d="m 63.755884,16.79965 10.812071,-2.884947 c 1.07692,-0.28735 2.810873,-0.2988 3.887783,-0.02567 l 10.812061,2.74216 c 1.07692,0.273128 1.07692,0.734387 0,1.034212 l -10.81207,3.010202 c -1.07692,0.299825 -2.810873,0.311275 -3.887783,0.02567 L 63.755884,17.833862 c -1.07692,-0.285603 -1.07692,-0.746862 0,-1.034212 z" />
      <path
         id="rect69973"
         style="fill:#d7e3f4;fill-opacity:1;stroke-width:6.61457;stroke-linecap:square;stroke-linejoin:round;paint-order:markers fill stroke"
         d="m 80.513015,21.218056 10.812071,-3.027731 c 1.07692,-0.301571 2.810872,-0.324471 3.887783,-0.05135 l 10.812061,2.74216 c 1.07691,0.273128 1.07691,0.745836 -1e-5,1.059883 l -10.812061,3.152987 c -1.07691,0.314047 -2.810863,0.336946 -3.887783,0.05134 L 80.513015,22.27794 c -1.07692,-0.285604 -1.076911,-0.758311 0,-1.059884 z" />
      <g
         aria-label="CUBING"
         transform="matrix(1.0630002,0,0,0.9743658,-3.9889405,2.1220678)"
         id="text129419"
         style="font-size:21.6188px;line-height:10.1338px;font-family:TF2;-inkscape-font-specification:TF2;letter-spacing:0.820208px;word-spacing:1.0904px;fill:none;stroke:#000000;stroke-width:0.287602px">
        <path
           d="m 30.731939,32.447229 q 0,-1.643029 1.124178,-2.551018 1.145796,-0.929609 3.41577,-0.929609 1.491697,0 2.659113,0.324282 v 2.5294 q -1.167416,-0.36752 -2.399687,-0.36752 -1.210653,0 -1.62141,0.324282 -0.410757,0.302663 -0.410757,0.929608 v 7.609818 q 0,1.232271 1.729504,1.232271 1.729504,0 2.767206,-0.324282 v 2.486162 q -1.167415,0.324282 -2.745588,0.324282 -4.518329,0 -4.518329,-3.459008 z"
           style="font-family:'Khand ExtraBold';-inkscape-font-specification:'Khand ExtraBold, Normal';fill:#ffffff;stroke:none;stroke-width:0.287602px"
           id="path162216" />
        <path
           d="m 46.209684,29.074696 h 2.745587 v 11.328251 q 0,1.707885 -1.080939,2.723969 -1.08094,1.016083 -3.177964,1.016083 -2.097023,0 -3.177963,-1.016083 -1.059322,-1.016084 -1.059322,-2.723969 V 29.074696 h 2.745588 v 11.198538 q 0,1.361985 1.491697,1.361985 1.513316,0 1.513316,-1.361985 z"
           style="font-family:'Khand ExtraBold';-inkscape-font-specification:'Khand ExtraBold, Normal';fill:#ffffff;stroke:none;stroke-width:0.287602px"
           id="path162218" />
        <path
           d="m 60.238939,32.468848 v 1.361984 q 0,2.075405 -1.556553,2.594256 1.686266,0.475613 1.686266,2.637493 v 1.470079 q 0,3.394151 -3.631958,3.394151 H 51.894083 V 29.074696 h 4.712898 q 3.631958,0 3.631958,3.394152 z M 56.196224,31.409526 H 54.63967 v 3.826528 h 1.556554 q 1.318746,0 1.318746,-1.25389 v -1.340366 q 0,-1.232272 -1.318746,-1.232272 z m 1.448459,8.950183 V 38.91125 q 0,-1.253891 -1.318747,-1.253891 H 54.63967 V 41.6136 h 1.686266 q 1.318747,0 1.318747,-1.253891 z"
           style="font-family:'Khand ExtraBold';-inkscape-font-specification:'Khand ExtraBold, Normal';fill:#ffffff;stroke:none;stroke-width:0.287602px"
           id="path162220" />
        <path
           d="m 63.220989,29.074696 h 2.767206 v 14.852115 h -2.767206 z"
           style="font-family:'Khand ExtraBold';-inkscape-font-specification:'Khand ExtraBold, Normal';fill:#ffffff;stroke:none;stroke-width:0.287602px"
           id="path162222" />
        <path
           d="m 75.391032,29.074696 h 2.723969 v 14.852115 h -2.723969 q -3.24282,-8.258381 -3.653577,-9.469034 -0.389138,-1.232271 -0.410757,-1.275509 0,0.04324 0.06486,0.54047 0.08648,0.475614 0.172951,1.08094 0.194569,1.686266 0.194569,4.172428 v 4.950705 h -2.70235 V 29.074696 h 2.788825 q 3.134726,7.998956 3.545483,9.317703 0.410758,1.297128 0.432376,1.340365 0,-0.04324 -0.108094,-0.778277 -0.324282,-2.16188 -0.324282,-5.080417 z"
           style="font-family:'Khand ExtraBold';-inkscape-font-specification:'Khand ExtraBold, Normal';fill:#ffffff;stroke:none;stroke-width:0.287602px"
           id="path162224" />
        <path
           d="m 80.967348,32.533704 q 0,-1.643029 1.210653,-2.594256 1.210653,-0.972846 3.523864,-0.972846 1.664648,0 2.940157,0.410757 v 2.594256 q -1.340366,-0.475613 -2.896919,-0.475613 -2.010549,0 -2.010549,1.340365 v 7.458486 q 0,1.275509 1.664648,1.275509 0.71342,0 1.124178,-0.259425 v -5.166893 h 2.680731 v 7.00449 q -1.599791,0.886371 -3.78329,0.886371 -2.183499,0 -3.329295,-0.886371 -1.124178,-0.88637 -1.124178,-2.572637 z"
           style="font-family:'Khand ExtraBold';-inkscape-font-specification:'Khand ExtraBold, Normal';fill:#ffffff;stroke:none;stroke-width:0.287602px"
           id="path162226" />
      </g>
      <path
         id="rect142426"
         d="m 91.769987,26.861 17.660353,-6.22793 0.17879,58.198832 -17.728423,12.355173 z"
         style="fill:#003380;fill-opacity:1;stroke:none;stroke-width:0.652198;stroke-linecap:butt;stroke-linejoin:miter;stroke-miterlimit:0;stroke-dasharray:none;stroke-opacity:1;paint-order:normal" />
      <path
         id="path144978"
         d="M 27.742395,26.861 10.082035,20.63307 9.9032447,78.831902 27.631675,91.187075 Z"
         style="fill:#003380;fill-opacity:1;stroke:none;stroke-width:0.652198;stroke-linecap:butt;stroke-linejoin:miter;stroke-miterlimit:0;stroke-dasharray:none;stroke-opacity:1;paint-order:normal" />
      <g
         id="g161660"
         transform="translate(-0.0804025)"
         style="fill:#5f8dd3">
        <g
           id="g140060"
           transform="translate(-34.373936,-15.100143)"
           style="fill:#5f8dd3;fill-opacity:1">
          <path
             id="rect139971"
             d="m 130.42829,42.696181 10.22374,-3.324701 c 1.01833,-0.328112 1.84104,0.402583 1.84464,1.637825 l 0.0348,11.944052 c 0.004,1.235187 -0.81419,2.582319 -1.83361,3.021142 l -10.23472,4.444291 c -1.01942,0.446521 -1.84211,-0.280162 -1.84459,-1.629968 l -0.024,-13.052428 c -0.002,-1.349838 0.81533,-2.706018 1.83366,-3.040217 z"
             style="opacity:1;fill:#5f8dd3;fill-opacity:1;stroke:none;stroke-width:0.652198;stroke-linecap:butt;stroke-linejoin:miter;stroke-miterlimit:0;stroke-dasharray:none;stroke-opacity:1;paint-order:normal" />
          <path
             id="rect140053"
             d="m 130.4682,62.968189 10.23629,-4.605367 c 1.01959,-0.45475 1.8433,0.174037 1.84691,1.409182 l 0.0348,11.943104 c 0.004,1.235084 -0.81519,2.68399 -1.83587,3.249472 l -10.24727,5.725203 c -1.02068,0.57503 -1.84437,-0.04801 -1.84685,-1.39775 l -0.024,-13.051721 c -0.002,-1.349773 0.81634,-2.809444 1.83592,-3.272125 z"
             style="opacity:1;fill:#5f8dd3;fill-opacity:1;stroke:none;stroke-width:0.652198;stroke-linecap:butt;stroke-linejoin:miter;stroke-miterlimit:0;stroke-dasharray:none;stroke-opacity:1;paint-order:normal" />
          <path
             id="rect140055"
             d="m 130.50811,83.239035 10.24885,-5.886313 c 1.02083,-0.581414 1.84556,-0.05456 1.84916,1.180492 l 0.0348,11.942157 c 0.004,1.23498 -0.8162,2.78568 -1.83813,3.477848 L 130.543,100.95962 c -1.02193,0.70356 -1.84663,0.18418 -1.84911,-1.165483 l -0.024,-13.051016 c -0.002,-1.349706 0.81736,-2.912893 1.83819,-3.504087 z"
             style="opacity:1;fill:#5f8dd3;fill-opacity:1;stroke:none;stroke-width:0.652198;stroke-linecap:butt;stroke-linejoin:miter;stroke-miterlimit:0;stroke-dasharray:none;stroke-opacity:1;paint-order:normal" />
        </g>
        <g
           id="g161650"
           transform="matrix(-1,0,0,1,154.04378,-15.100143)"
           style="fill:#5f8dd3;fill-opacity:1">
          <path
             id="path161644"
             d="m 130.42829,42.696181 10.22374,-3.324701 c 1.01833,-0.328112 1.84104,0.402583 1.84464,1.637825 l 0.0348,11.944052 c 0.004,1.235187 -0.81419,2.582319 -1.83361,3.021142 l -10.23472,4.444291 c -1.01942,0.446521 -1.84211,-0.280162 -1.84459,-1.629968 l -0.024,-13.052428 c -0.002,-1.349838 0.81533,-2.706018 1.83366,-3.040217 z"
             style="opacity:1;fill:#5f8dd3;fill-opacity:1;stroke:none;stroke-width:0.652198;stroke-linecap:butt;stroke-linejoin:miter;stroke-miterlimit:0;stroke-dasharray:none;stroke-opacity:1;paint-order:normal" />
          <path
             id="path161646"
             d="m 130.4682,62.968189 10.23629,-4.605367 c 1.01959,-0.45475 1.8433,0.174037 1.84691,1.409182 l 0.0348,11.943104 c 0.004,1.235084 -0.81519,2.68399 -1.83587,3.249472 l -10.24727,5.725203 c -1.02068,0.57503 -1.84437,-0.04801 -1.84685,-1.39775 l -0.024,-13.051721 c -0.002,-1.349773 0.81634,-2.809444 1.83592,-3.272125 z"
             style="opacity:1;fill:#5f8dd3;fill-opacity:1;stroke:none;stroke-width:0.652198;stroke-linecap:butt;stroke-linejoin:miter;stroke-miterlimit:0;stroke-dasharray:none;stroke-opacity:1;paint-order:normal" />
          <path
             id="path161648"
             d="m 130.50811,83.239035 10.24885,-5.886313 c 1.02083,-0.581414 1.84556,-0.05456 1.84916,1.180492 l 0.0348,11.942157 c 0.004,1.23498 -0.8162,2.78568 -1.83813,3.477848 L 130.543,100.95962 c -1.02193,0.70356 -1.84663,0.18418 -1.84911,-1.165483 l -0.024,-13.051016 c -0.002,-1.349706 0.81736,-2.912893 1.83819,-3.504087 z"
             style="opacity:1;fill:#5f8dd3;fill-opacity:1;stroke:none;stroke-width:0.652198;stroke-linecap:butt;stroke-linejoin:miter;stroke-miterlimit:0;stroke-dasharray:none;stroke-opacity:1;paint-order:normal" />
        </g>
      </g>
      <g
         id="g3"
         transform="matrix(1.0866938,0,0,1.0866938,-5.1803649,-2.1627446)">
        <path
           sodipodi:type="star"
           style="fill:#ffffff;stroke:none;stroke-width:2.465;stroke-linejoin:round;stroke-miterlimit:22.5;paint-order:fill markers stroke"
           id="path1"
           inkscape:flatsided="false"
           sodipodi:sides="5"
           sodipodi:cx="14.357206"
           sodipodi:cy="5.9396043"
           sodipodi:r1="11.657856"
           sodipodi:r2="4.4986734"
           sodipodi:arg1="0.31135023"
           sodipodi:arg2="0.93966876"
           inkscape:rounded="0"
           inkscape:randomized="0"
           d="M 25.454562,9.5109212 17.011673,9.5716654 14.389954,17.597414 11.723186,9.586521 3.2800897,9.5732102 10.074826,4.5614616 7.4784244,-3.4725137 14.344569,1.4409486 21.183002,-3.5110105 18.631777,4.5374248 Z"
           inkscape:transform-center-x="0.048264983"
           inkscape:transform-center-y="-0.45275117"
           transform="matrix(-0.37359305,-9.6620038e-4,9.6620038e-4,-0.37359305,65.113025,26.449798)" />
        <path
           sodipodi:type="star"
           style="fill:#ffffff;stroke:none;stroke-width:2.465;stroke-linejoin:round;stroke-miterlimit:22.5;paint-order:fill markers stroke"
           id="path2"
           inkscape:flatsided="false"
           sodipodi:sides="5"
           sodipodi:cx="14.357206"
           sodipodi:cy="5.9396043"
           sodipodi:r1="11.657856"
           sodipodi:r2="4.4986734"
           sodipodi:arg1="0.31135023"
           sodipodi:arg2="0.93966876"
           inkscape:rounded="0"
           inkscape:randomized="0"
           d="M 25.454562,9.5109212 17.011673,9.5716654 14.389954,17.597414 11.723186,9.586521 3.2800897,9.5732102 10.074826,4.5614616 7.4784244,-3.4725137 14.344569,1.4409486 21.183002,-3.5110105 18.631777,4.5374248 Z"
           inkscape:transform-center-x="0.035194384"
           inkscape:transform-center-y="-0.33014324"
           transform="matrix(-0.27242187,-7.0454767e-4,7.0454767e-4,-0.27242187,72.675107,26.799468)" />
        <path
           sodipodi:type="star"
           style="fill:#ffffff;stroke:none;stroke-width:2.465;stroke-linejoin:round;stroke-miterlimit:22.5;paint-order:fill markers stroke"
           id="path3"
           inkscape:flatsided="false"
           sodipodi:sides="5"
           sodipodi:cx="14.357206"
           sodipodi:cy="5.9396043"
           sodipodi:r1="11.657856"
           sodipodi:r2="4.4986734"
           sodipodi:arg1="0.31135023"
           sodipodi:arg2="0.93966876"
           inkscape:rounded="0"
           inkscape:randomized="0"
           d="M 25.454562,9.5109212 17.011673,9.5716654 14.389954,17.597414 11.723186,9.586521 3.2800897,9.5732102 10.074826,4.5614616 7.4784244,-3.4725137 14.344569,1.4409486 21.183002,-3.5110105 18.631777,4.5374248 Z"
           inkscape:transform-center-x="0.035194384"
           inkscape:transform-center-y="-0.33014324"
           transform="matrix(-0.27242187,-7.0454767e-4,7.0454767e-4,-0.27242187,54.648819,26.799468)" />
      </g>
    </g>
  </g>
</svg>
